<svg width="490" height="490" viewBox="0 0 490 490" fill="none" xmlns="http://www.w3.org/2000/svg">
<path d="M226.35 156.243C238.025 184.427 244.327 214.529 244.949 245L5.00003 245L5 5.05103C35.4707 5.67297 65.5733 11.9753 93.7574 23.6495C123.482 35.9619 150.491 54.0085 173.241 76.7588C195.992 99.5092 214.038 126.518 226.35 156.243Z" fill="#C39EFF" stroke="#0C0C0C" stroke-width="10"/>
<path d="M466.35 396.243C478.025 424.427 484.327 454.529 484.949 485L245 485L245 245.051C275.471 245.673 305.573 251.975 333.757 263.65C363.482 275.962 390.491 294.008 413.241 316.759C435.992 339.509 454.038 366.518 466.35 396.243Z" fill="#FF9C9C" stroke="#0C0C0C" stroke-width="10"/>
<path d="M5 245H150C202.467 245 245 287.533 245 340V485H5V245Z" stroke="#0C0C0C" stroke-width="10"/>
</svg>
