<svg width="190" height="400" viewBox="0 0 190 400" fill="none" xmlns="http://www.w3.org/2000/svg">
<mask id="path-1-inside-1_21_48" fill="white">
<path d="M-10 400C43.0433 400 93.9141 378.929 131.421 341.421C168.929 303.914 190 253.043 190 200C190 146.957 168.929 96.0859 131.421 58.5787C93.9141 21.0714 43.0433 1.03279e-05 -9.99995 0L-10 200L-10 400Z"/>
</mask>
<path d="M-10 400C43.0433 400 93.9141 378.929 131.421 341.421C168.929 303.914 190 253.043 190 200C190 146.957 168.929 96.0859 131.421 58.5787C93.9141 21.0714 43.0433 1.03279e-05 -9.99995 0L-10 200L-10 400Z" fill="#C39EFF" stroke="#0C0C0C" stroke-width="20" mask="url(#path-1-inside-1_21_48)"/>
</svg>
