<svg width="110" height="250" viewBox="0 0 110 250" fill="none" xmlns="http://www.w3.org/2000/svg">
<mask id="path-1-inside-1_28_16" fill="white">
<path d="M125 250C91.8479 250 60.0537 236.83 36.6117 213.388C13.1696 189.946 0 158.152 0 125C0 91.848 13.1696 60.0537 36.6116 36.6117C60.0537 13.1696 91.8479 6.45495e-06 125 0L125 125L125 250Z"/>
</mask>
<path d="M125 250C91.8479 250 60.0537 236.83 36.6117 213.388C13.1696 189.946 0 158.152 0 125C0 91.848 13.1696 60.0537 36.6116 36.6117C60.0537 13.1696 91.8479 6.45495e-06 125 0L125 125L125 250Z" fill="#FF9C9C" stroke="#0C0C0C" stroke-width="20" mask="url(#path-1-inside-1_28_16)"/>
</svg>
