<svg width="190" height="443" viewBox="0 0 190 443" fill="none" xmlns="http://www.w3.org/2000/svg">
<mask id="path-1-inside-1_21_56" fill="white">
<path d="M200 0C173.736 -3.132e-07 147.728 5.17315 123.463 15.2241C99.1982 25.275 77.1504 40.0069 58.5786 58.5787C40.0069 77.1504 25.275 99.1982 15.2241 123.463C5.17315 147.728 -3.96581e-06 173.736 0 200L200 200V0Z"/>
</mask>
<path d="M200 0C173.736 -3.132e-07 147.728 5.17315 123.463 15.2241C99.1982 25.275 77.1504 40.0069 58.5786 58.5787C40.0069 77.1504 25.275 99.1982 15.2241 123.463C5.17315 147.728 -3.96581e-06 173.736 0 200L200 200V0Z" fill="#C39EFF" stroke="#0C0C0C" stroke-width="20" mask="url(#path-1-inside-1_21_56)"/>
<path d="M19.8435 317.623C10.6821 295.506 5.67719 271.904 5.06411 248L195 248L195 437.936C171.096 437.323 147.494 432.318 125.377 423.157C101.718 413.357 80.2216 398.993 62.1142 380.886C44.0068 362.778 29.6432 341.282 19.8435 317.623Z" fill="#FF9C9C" stroke="#0C0C0C" stroke-width="10"/>
</svg>
