<svg width="1920" height="901" viewBox="0 0 1920 901" fill="none" xmlns="http://www.w3.org/2000/svg">
<path d="M1915 854.166V812.5C1901.87 812.5 1888.86 814.655 1876.73 818.843C1864.6 823.031 1853.58 829.169 1844.29 836.907C1835 844.646 1827.64 853.832 1822.61 863.943C1817.59 874.053 1815 884.889 1815 895.833L1865 895.833" stroke="#0C0C0C" stroke-width="10"/>
<path d="M5 854.166V812.5C18.1322 812.5 31.1358 814.655 43.2683 818.843C55.4009 823.031 66.4248 829.169 75.7107 836.907C84.9965 844.646 92.3625 853.832 97.388 863.943C102.413 874.053 105 884.889 105 895.833L55 895.833" stroke="#0C0C0C" stroke-width="10"/>
<path d="M5 46.8328V88.4995C18.1322 88.4995 31.1358 86.344 43.2683 82.1561C55.4009 77.9682 66.4248 71.83 75.7107 64.0917C84.9965 56.3535 92.3625 47.1669 97.388 37.0565C102.413 26.946 105 16.1097 105 5.16617L55 5.16617" stroke="#0C0C0C" stroke-width="10"/>
<path d="M1575 205.166V246.833C1561.87 246.833 1548.86 244.678 1536.73 240.49C1524.6 236.302 1513.58 230.163 1504.29 222.425C1495 214.687 1487.64 205.5 1482.61 195.39C1477.59 185.279 1475 174.443 1475 163.5L1525 163.5" stroke="#0C0C0C" stroke-width="10"/>
<rect x="5" y="5" width="1910" height="890" rx="40" stroke="#C39EFF" stroke-width="10"/>
<rect x="350" y="163.333" width="1225" height="573.333" rx="40" stroke="#C39EFF" stroke-width="10"/>
</svg>
